<svg xmlns="http://www.w3.org/2000/svg" width="1200" height="620" viewBox="0 0 1200 620">
  <defs>
    <linearGradient id="bg" x1="0" y1="0" x2="1" y2="1">
      <stop offset="0" stop-color="#10263f"/>
      <stop offset="1" stop-color="#173a70"/>
    </linearGradient>
  </defs>
  <rect width="1200" height="620" rx="28" fill="url(#bg)"/>
  <rect x="64" y="58" width="1072" height="84" rx="18" fill="#eef6fb" opacity=".96"/>
  <text x="92" y="110" font-family="Arial, sans-serif" font-size="34" font-weight="800" fill="#173a70">ROAD A EYE 실시간 관제 시연 화면</text>
  <rect x="64" y="174" width="330" height="356" rx="20" fill="#ffffff" opacity=".94"/>
  <rect x="430" y="174" width="706" height="356" rx="20" fill="#0f172a" opacity=".96"/>
  <text x="92" y="228" font-family="Arial, sans-serif" font-size="26" font-weight="800" fill="#173a70">AI 분석 흐름</text>
  <circle cx="104" cy="282" r="9" fill="#e11d48"/><text x="128" y="291" font-family="Arial, sans-serif" font-size="22" font-weight="700" fill="#334155">ITS CCTV 스트림 수신</text>
  <circle cx="104" cy="342" r="9" fill="#2563eb"/><text x="128" y="351" font-family="Arial, sans-serif" font-size="22" font-weight="700" fill="#334155">Keras 게이트 분류</text>
  <circle cx="104" cy="402" r="9" fill="#9333ea"/><text x="128" y="411" font-family="Arial, sans-serif" font-size="22" font-weight="700" fill="#334155">YOLO 객체 탐지</text>
  <circle cx="104" cy="462" r="9" fill="#16a34a"/><text x="128" y="471" font-family="Arial, sans-serif" font-size="22" font-weight="700" fill="#334155">대시보드 알림 저장</text>
  <rect x="470" y="216" width="420" height="260" rx="16" fill="#1e293b" stroke="#60a5fa" stroke-width="4"/>
  <rect x="568" y="290" width="184" height="92" rx="12" fill="none" stroke="#ef4444" stroke-width="6"/>
  <text x="584" y="278" font-family="Arial, sans-serif" font-size="22" font-weight="800" fill="#fecaca">Electric Scooter 91%</text>
  <rect x="926" y="216" width="92" height="92" rx="18" fill="#e11d48" opacity=".92"/>
  <text x="942" y="270" font-family="Arial, sans-serif" font-size="22" font-weight="900" fill="#fff">LIVE</text>
  <text x="470" y="532" font-family="Arial, sans-serif" font-size="28" font-weight="900" fill="#fff">탐지 · 기록 저장 · 실시간 알림까지 한 화면에서 확인</text>
</svg>
